<svg width="477" height="485" viewBox="0 0 477 485" fill="none" xmlns="http://www.w3.org/2000/svg">
<g filter="url(#filter0_d_303_276)">
<circle cx="99.9143" cy="99.9143" r="94.9143" transform="matrix(1 0 0 -1 186 282.003)" stroke="black" stroke-width="10"/>
<circle cx="92.4208" cy="92.4208" r="82.4208" transform="matrix(1 0 0 -1 192.994 275.009)" stroke="#86EFAC" stroke-width="20"/>
</g>
<g filter="url(#filter1_d_303_276)">
<mask id="path-3-inside-1_303_276" fill="white">
<path d="M447.823 0L345.354 102.469L369.208 126.323L471.677 23.8541L447.823 0Z"/>
</mask>
<path d="M447.823 0L345.354 102.469L369.208 126.323L471.677 23.8541L447.823 0Z" fill="#86EFAC"/>
<path d="M447.823 0L444.288 -3.53553L447.823 -7.07107L451.359 -3.53553L447.823 0ZM471.677 23.8541L475.213 20.3185L478.748 23.8541L475.213 27.3896L471.677 23.8541ZM451.359 3.53553L348.89 106.005L341.819 98.9335L444.288 -3.53553L451.359 3.53553ZM365.673 122.788L468.142 20.3185L475.213 27.3896L372.744 129.859L365.673 122.788ZM468.142 27.3896L444.288 3.53553L451.359 -3.53553L475.213 20.3185L468.142 27.3896Z" fill="black" mask="url(#path-3-inside-1_303_276)"/>
</g>
<g filter="url(#filter2_d_303_276)">
<circle cx="185.761" cy="189.087" r="94.9132" transform="rotate(180 185.761 189.087)" stroke="black" stroke-width="10"/>
<circle cx="186.26" cy="189.586" r="82.4197" transform="rotate(180 186.26 189.586)" stroke="#F87171" stroke-width="20"/>
</g>
<g filter="url(#filter3_d_303_276)">
<mask id="path-7-inside-2_303_276" fill="white">
<path d="M23.8535 7L127.675 110.822L103.821 134.675L-0.000275801 30.8538L23.8535 7Z"/>
</mask>
<path d="M23.8535 7L127.675 110.822L103.821 134.675L-0.000275801 30.8538L23.8535 7Z" fill="#F87171"/>
<path d="M23.8535 7L27.389 3.46447L23.8535 -0.0710677L20.318 3.46447L23.8535 7ZM127.675 110.822L131.211 114.357L134.746 110.822L131.211 107.286L127.675 110.822ZM103.821 134.675L100.286 138.211L103.821 141.747L107.357 138.211L103.821 134.675ZM-0.000275801 30.8538L-3.53581 27.3183L-7.07134 30.8538L-3.53581 34.3893L-0.000275801 30.8538ZM20.318 10.5355L124.14 114.357L131.211 107.286L27.389 3.46447L20.318 10.5355ZM124.14 107.286L100.286 131.14L107.357 138.211L131.211 114.357L124.14 107.286ZM107.357 131.14L3.53526 27.3183L-3.53581 34.3893L100.286 138.211L107.357 131.14ZM3.53526 34.3893L27.389 10.5355L20.318 3.46447L-3.53581 27.3183L3.53526 34.3893Z" fill="black" mask="url(#path-7-inside-2_303_276)"/>
</g>
<g filter="url(#filter4_d_303_276)">
<circle cx="285.587" cy="297.913" r="94.9132" stroke="black" stroke-width="10"/>
<circle cx="285.088" cy="297.414" r="82.4197" stroke="#FBBF24" stroke-width="20"/>
</g>
<g filter="url(#filter5_d_303_276)">
<mask id="path-11-inside-3_303_276" fill="white">
<path d="M447.494 480L351.087 383.593L374.941 359.739L471.348 456.146L447.494 480Z"/>
</mask>
<path d="M447.494 480L351.087 383.593L374.941 359.739L471.348 456.146L447.494 480Z" fill="#FBBF24"/>
<path d="M447.494 480L443.959 483.536L447.494 487.071L451.03 483.536L447.494 480ZM471.348 456.146L474.883 459.682L478.419 456.146L474.883 452.611L471.348 456.146ZM451.03 476.464L354.623 380.057L347.551 387.128L443.959 483.536L451.03 476.464ZM371.405 363.275L467.812 459.682L474.883 452.611L378.476 356.204L371.405 363.275ZM467.812 452.611L443.959 476.464L451.03 483.536L474.883 459.682L467.812 452.611Z" fill="black" mask="url(#path-11-inside-3_303_276)"/>
</g>
<g filter="url(#filter6_d_303_276)">
<circle cx="99.9132" cy="99.9132" r="94.9132" transform="matrix(-1 0 0 1 285.674 198)" stroke="black" stroke-width="10"/>
<circle cx="92.4197" cy="92.4197" r="82.4197" transform="matrix(-1 0 0 1 278.68 204.994)" stroke="#93C5FD" stroke-width="20"/>
</g>
<g filter="url(#filter7_d_303_276)">
<mask id="path-15-inside-4_303_276" fill="white">
<path d="M23.8535 480L126.726 377.128L102.872 353.274L-0.000275801 456.146L23.8535 480Z"/>
</mask>
<path d="M23.8535 480L126.726 377.128L102.872 353.274L-0.000275801 456.146L23.8535 480Z" fill="#93C5FD"/>
<path d="M23.8535 480L27.389 483.536L23.8535 487.071L20.318 483.536L23.8535 480ZM-0.000275801 456.146L-3.53581 459.682L-7.07134 456.146L-3.53581 452.611L-0.000275801 456.146ZM20.318 476.464L123.19 373.592L130.261 380.663L27.389 483.536L20.318 476.464ZM106.408 356.809L3.53526 459.682L-3.53581 452.611L99.3365 349.738L106.408 356.809ZM3.53526 452.611L27.389 476.464L20.318 483.536L-3.53581 459.682L3.53526 452.611Z" fill="black" mask="url(#path-15-inside-4_303_276)"/>
</g>
<defs>
<filter id="filter0_d_303_276" x="186" y="82.1745" width="207.329" height="207.329" filterUnits="userSpaceOnUse" color-interpolation-filters="sRGB">
<feFlood flood-opacity="0" result="BackgroundImageFix"/>
<feColorMatrix in="SourceAlpha" type="matrix" values="0 0 0 0 0 0 0 0 0 0 0 0 0 0 0 0 0 0 127 0" result="hardAlpha"/>
<feOffset dx="7.5" dy="7.5"/>
<feComposite in2="hardAlpha" operator="out"/>
<feColorMatrix type="matrix" values="0 0 0 0 0 0 0 0 0 0 0 0 0 0 0 0 0 0 1 0"/>
<feBlend mode="normal" in2="BackgroundImageFix" result="effect1_dropShadow_303_276"/>
<feBlend mode="normal" in="SourceGraphic" in2="effect1_dropShadow_303_276" result="shape"/>
</filter>
<filter id="filter1_d_303_276" x="345.354" y="0" width="131.323" height="131.323" filterUnits="userSpaceOnUse" color-interpolation-filters="sRGB">
<feFlood flood-opacity="0" result="BackgroundImageFix"/>
<feColorMatrix in="SourceAlpha" type="matrix" values="0 0 0 0 0 0 0 0 0 0 0 0 0 0 0 0 0 0 127 0" result="hardAlpha"/>
<feOffset dx="5" dy="5"/>
<feComposite in2="hardAlpha" operator="out"/>
<feColorMatrix type="matrix" values="0 0 0 0 0 0 0 0 0 0 0 0 0 0 0 0 0 0 1 0"/>
<feBlend mode="normal" in2="BackgroundImageFix" result="effect1_dropShadow_303_276"/>
<feBlend mode="normal" in="SourceGraphic" in2="effect1_dropShadow_303_276" result="shape"/>
</filter>
<filter id="filter2_d_303_276" x="85.8477" y="89.1736" width="207.326" height="207.326" filterUnits="userSpaceOnUse" color-interpolation-filters="sRGB">
<feFlood flood-opacity="0" result="BackgroundImageFix"/>
<feColorMatrix in="SourceAlpha" type="matrix" values="0 0 0 0 0 0 0 0 0 0 0 0 0 0 0 0 0 0 127 0" result="hardAlpha"/>
<feOffset dx="7.5" dy="7.5"/>
<feComposite in2="hardAlpha" operator="out"/>
<feColorMatrix type="matrix" values="0 0 0 0 0 0 0 0 0 0 0 0 0 0 0 0 0 0 1 0"/>
<feBlend mode="normal" in2="BackgroundImageFix" result="effect1_dropShadow_303_276"/>
<feBlend mode="normal" in="SourceGraphic" in2="effect1_dropShadow_303_276" result="shape"/>
</filter>
<filter id="filter3_d_303_276" x="-0.000488281" y="2" width="132.675" height="132.675" filterUnits="userSpaceOnUse" color-interpolation-filters="sRGB">
<feFlood flood-opacity="0" result="BackgroundImageFix"/>
<feColorMatrix in="SourceAlpha" type="matrix" values="0 0 0 0 0 0 0 0 0 0 0 0 0 0 0 0 0 0 127 0" result="hardAlpha"/>
<feOffset dx="5" dy="-5"/>
<feComposite in2="hardAlpha" operator="out"/>
<feColorMatrix type="matrix" values="0 0 0 0 0 0 0 0 0 0 0 0 0 0 0 0 0 0 1 0"/>
<feBlend mode="normal" in2="BackgroundImageFix" result="effect1_dropShadow_303_276"/>
<feBlend mode="normal" in="SourceGraphic" in2="effect1_dropShadow_303_276" result="shape"/>
</filter>
<filter id="filter4_d_303_276" x="185.674" y="198" width="207.326" height="207.326" filterUnits="userSpaceOnUse" color-interpolation-filters="sRGB">
<feFlood flood-opacity="0" result="BackgroundImageFix"/>
<feColorMatrix in="SourceAlpha" type="matrix" values="0 0 0 0 0 0 0 0 0 0 0 0 0 0 0 0 0 0 127 0" result="hardAlpha"/>
<feOffset dx="7.5" dy="7.5"/>
<feComposite in2="hardAlpha" operator="out"/>
<feColorMatrix type="matrix" values="0 0 0 0 0 0 0 0 0 0 0 0 0 0 0 0 0 0 1 0"/>
<feBlend mode="normal" in2="BackgroundImageFix" result="effect1_dropShadow_303_276"/>
<feBlend mode="normal" in="SourceGraphic" in2="effect1_dropShadow_303_276" result="shape"/>
</filter>
<filter id="filter5_d_303_276" x="351.087" y="354.739" width="125.261" height="125.261" filterUnits="userSpaceOnUse" color-interpolation-filters="sRGB">
<feFlood flood-opacity="0" result="BackgroundImageFix"/>
<feColorMatrix in="SourceAlpha" type="matrix" values="0 0 0 0 0 0 0 0 0 0 0 0 0 0 0 0 0 0 127 0" result="hardAlpha"/>
<feOffset dx="5" dy="-5"/>
<feComposite in2="hardAlpha" operator="out"/>
<feColorMatrix type="matrix" values="0 0 0 0 0 0 0 0 0 0 0 0 0 0 0 0 0 0 1 0"/>
<feBlend mode="normal" in2="BackgroundImageFix" result="effect1_dropShadow_303_276"/>
<feBlend mode="normal" in="SourceGraphic" in2="effect1_dropShadow_303_276" result="shape"/>
</filter>
<filter id="filter6_d_303_276" x="85.8477" y="198" width="207.326" height="207.326" filterUnits="userSpaceOnUse" color-interpolation-filters="sRGB">
<feFlood flood-opacity="0" result="BackgroundImageFix"/>
<feColorMatrix in="SourceAlpha" type="matrix" values="0 0 0 0 0 0 0 0 0 0 0 0 0 0 0 0 0 0 127 0" result="hardAlpha"/>
<feOffset dx="7.5" dy="7.5"/>
<feComposite in2="hardAlpha" operator="out"/>
<feColorMatrix type="matrix" values="0 0 0 0 0 0 0 0 0 0 0 0 0 0 0 0 0 0 1 0"/>
<feBlend mode="normal" in2="BackgroundImageFix" result="effect1_dropShadow_303_276"/>
<feBlend mode="normal" in="SourceGraphic" in2="effect1_dropShadow_303_276" result="shape"/>
</filter>
<filter id="filter7_d_303_276" x="-0.000488281" y="353.274" width="131.726" height="131.726" filterUnits="userSpaceOnUse" color-interpolation-filters="sRGB">
<feFlood flood-opacity="0" result="BackgroundImageFix"/>
<feColorMatrix in="SourceAlpha" type="matrix" values="0 0 0 0 0 0 0 0 0 0 0 0 0 0 0 0 0 0 127 0" result="hardAlpha"/>
<feOffset dx="5" dy="5"/>
<feComposite in2="hardAlpha" operator="out"/>
<feColorMatrix type="matrix" values="0 0 0 0 0 0 0 0 0 0 0 0 0 0 0 0 0 0 1 0"/>
<feBlend mode="normal" in2="BackgroundImageFix" result="effect1_dropShadow_303_276"/>
<feBlend mode="normal" in="SourceGraphic" in2="effect1_dropShadow_303_276" result="shape"/>
</filter>
</defs>
</svg>
